<svg width="160" height="58" viewBox="0 0 160 58" fill="none" xmlns="http://www.w3.org/2000/svg">
<path d="M2.964 40.5V14.28H15.884C20.3427 14.28 22.572 16.5093 22.572 20.968V25.376C22.572 28.4667 21.508 30.4933 19.38 31.456L23.332 39.17L22.572 40.5H16.872L12.54 32.026H9.576V40.5H2.964ZM9.576 26.06H15.542C15.8207 26.06 15.96 25.9207 15.96 25.642V20.664C15.96 20.3853 15.8207 20.246 15.542 20.246H9.576V26.06ZM32.6931 40.5C28.4371 40.5 26.3091 38.4353 26.3091 34.306C26.3091 30.1767 28.4371 28.112 32.6931 28.112H37.0631V26.288C37.0631 25.9587 36.8984 25.794 36.5691 25.794H28.5511V22.26L31.2111 20.284H37.0251C41.2811 20.284 43.4091 22.412 43.4091 26.668V40.5H32.6931ZM32.6551 34.496C32.6551 34.8253 32.8197 34.99 33.1491 34.99H37.0631V32.9H33.1491C32.8197 32.9 32.6551 33.0647 32.6551 33.394V34.496ZM48.2621 40.5V23.02C49.2247 21.196 51.0994 20.284 53.8861 20.284H58.1421L60.8021 22.26V25.794H55.7861C55.1781 25.794 54.7854 25.9333 54.6081 26.212V40.5H48.2621ZM64.2951 17.168V11.278H70.7931V17.168H64.2951ZM64.3711 40.5V20.284H70.7171V40.5H64.3711ZM75.723 34.116V14.28H82.069V20.284H88.263V25.794H82.069V34.496C82.069 34.8253 82.2337 34.99 82.563 34.99H88.643V38.524L85.983 40.5H82.107C77.851 40.5 75.723 38.372 75.723 34.116ZM90.6733 21.196L91.3193 20.284H96.7913L100.819 34.99H101.047L105.075 20.284H110.547L111.193 21.196L103.251 48.1H97.7793L97.1333 47.188L99.2993 40.5H96.4113L90.6733 21.196Z" fill="white"/>
<circle cx="140" cy="29" r="20" fill="#878CFF"/>
<path d="M144.933 28.02C145.28 27.9534 145.52 28.3467 145.307 28.6267L140.673 34.5267C140.44 34.8267 139.96 34.6334 140 34.26L140.467 29.1934C140.48 29.0267 140.607 28.8867 140.773 28.8534L144.933 28.02Z" fill="white"/>
<path d="M146.427 26.1267C146.573 26.2867 146.493 26.5467 146.287 26.5933L140.66 27.72C140.293 27.7933 140.053 27.3467 140.32 27.08L143.667 23.7333C143.82 23.58 144.067 23.5867 144.213 23.74L146.427 26.1267Z" fill="white"/>
<path d="M141.793 23.1267C142.107 23.1667 142.233 23.5467 142.013 23.7733L139.64 26.1467C139.5 26.2867 139.273 26.2933 139.12 26.16L135.56 22.9933C135.28 22.7467 135.493 22.2867 135.86 22.3333L141.793 23.1267Z" fill="white"/>
<path d="M139.147 27.7133C139.327 27.8733 139.413 28.1067 139.4 28.34L138.827 35.3133C138.793 35.7133 138.24 35.7933 138.093 35.42L133.527 23.64C133.38 23.2667 133.833 22.9533 134.133 23.22L139.147 27.7133Z" fill="white"/>
</svg>
